<svg preserveAspectRatio="none" overflow="visible" style="display: block;" width="13.965" height="13.965" viewBox="0 0 13.965 13.965" fill="none" xmlns="http://www.w3.org/2000/svg">
<g id="icon" clip-path="url(#clip0_0_4)">
<path id="Vector" d="M6.98223 13.965C6.0185 13.965 5.11386 13.7831 4.26832 13.4195C3.4137 13.0558 2.67044 12.558 2.03856 11.9261C1.40668 11.2943 0.908905 10.551 0.545233 9.69637C0.181561 8.85083 -0.000274658 7.9462 -0.000274658 6.98247C-0.000274658 6.01874 0.181561 5.11411 0.545233 4.26857C0.908905 3.41394 1.40668 2.67068 2.03856 2.0388C2.67044 1.40693 3.4137 0.909149 4.26832 0.545477C5.11386 0.181805 6.0185 -3.05176e-05 6.98223 -3.05176e-05C7.94596 -3.05176e-05 8.85059 0.181805 9.69613 0.545477C10.5508 0.909149 11.294 1.40693 11.9259 2.0388C12.5578 2.67068 13.0555 3.41394 13.4192 4.26857C13.7829 5.11411 13.9647 6.01874 13.9647 6.98247C13.9647 7.9462 13.7829 8.85083 13.4192 9.69637C13.0555 10.551 12.5578 11.2943 11.9259 11.9261C11.294 12.558 10.5508 13.0558 9.69613 13.4195C8.85059 13.7831 7.94596 13.965 6.98223 13.965ZM6.2867 1.44557C5.59573 1.52739 4.95476 1.73196 4.36379 2.05926C3.76373 2.37747 3.2455 2.78206 2.80909 3.27302C2.37268 3.76397 2.0272 4.32766 1.77263 4.96409C1.51806 5.60052 1.39077 6.27331 1.39077 6.98247C1.39077 7.20067 1.40441 7.41433 1.43168 7.62344C1.45896 7.83255 1.49533 8.03712 1.54079 8.23714L4.88202 4.88226V4.18674C4.88202 3.80489 5.0184 3.47758 5.29115 3.20483C5.56391 2.93207 5.89576 2.7957 6.2867 2.7957V1.44557ZM11.1008 3.21847C11.0099 3.50031 10.844 3.73215 10.603 3.91399C10.3621 4.09582 10.0871 4.18674 9.77795 4.18674H9.08243V6.28695C9.08243 6.47787 9.01424 6.64153 8.87787 6.7779C8.74149 6.91428 8.57329 6.98247 8.37327 6.98247H4.1865V8.37351H5.59118C5.78211 8.37351 5.94576 8.4417 6.08214 8.57808C6.21851 8.71446 6.2867 8.88266 6.2867 9.08267V10.4737H7.67775C8.0687 10.4737 8.40055 10.6101 8.6733 10.8829C8.94605 11.1556 9.08243 11.4829 9.08243 11.8648V12.1648C9.59157 11.9557 10.0598 11.6784 10.4871 11.3329C10.9144 10.9874 11.2826 10.5896 11.5918 10.1396C11.9009 9.68955 12.1418 9.19632 12.3146 8.65991C12.4873 8.13258 12.5737 7.57344 12.5737 6.98247C12.5737 6.25513 12.4419 5.5687 12.1782 4.92318C11.9145 4.27766 11.5554 3.70942 11.1008 3.21847Z" fill="#1A1A1A"/>
</g>
<defs>
<clipPath id="clip0_0_4">
<rect width="13.965" height="13.965" fill="white"/>
</clipPath>
</defs>
</svg>
